<?xml version="1.0" standalone="no"?>
<!DOCTYPE svg PUBLIC "-//W3C//DTD SVG 20010904//EN"
 "http://www.w3.org/TR/2001/REC-SVG-20010904/DTD/svg10.dtd">
<svg version="1.0" xmlns="http://www.w3.org/2000/svg"
 width="200.000000pt" height="200.000000pt" viewBox="0 0 200.000000 200.000000"
 preserveAspectRatio="xMidYMid meet">

<g transform="translate(0.000000,200.000000) scale(0.100000,-0.100000)"
fill="#000000" stroke="none">
<path d="M251 1964 c-5 -22 -33 -129 -61 -239 -28 -110 -83 -319 -121 -463
-64 -245 -77 -303 -64 -290 9 8 266 1020 261 1025 -3 3 -9 -12 -15 -33z"/>
<path d="M591 1825 c-24 -97 -41 -178 -38 -181 7 -7 16 25 57 196 17 69 33
133 36 143 3 9 2 17 -3 17 -5 0 -28 -79 -52 -175z"/>
<path d="M1645 1889 c-10 -15 3 -25 16 -12 7 7 7 13 1 17 -6 3 -14 1 -17 -5z"/>
<path d="M1979 1826 c-2 -3 -31 -7 -64 -10 -33 -3 -109 -13 -170 -21 -60 -8
-116 -15 -122 -15 -7 0 -13 -8 -13 -18 0 -17 10 -17 192 8 115 15 193 30 195
37 4 11 -11 26 -18 19z"/>
<path d="M1544 1775 c3 -16 15 -97 26 -180 42 -320 62 -462 85 -605 7 -47 19
-125 25 -175 14 -101 21 -115 59 -114 25 0 25 0 4 9 -13 5 -23 13 -23 17 0 13
-47 326 -78 523 -16 102 -35 219 -41 260 -30 190 -47 279 -55 287 -5 4 -6 -5
-2 -22z"/>
<path d="M765 1630 c-279 -83 -262 -76 -280 -111 -21 -39 -20 -46 21 -194 59
-214 85 -287 98 -282 16 6 28 -2 49 -32 17 -25 52 -38 61 -22 7 11 -44 58 -69
63 -14 2 -25 21 -40 73 l-21 70 24 12 c13 7 30 13 37 13 7 0 15 5 17 11 2 7
16 13 31 15 15 1 34 10 43 18 8 9 18 16 22 16 3 0 1 -5 -6 -12 -7 -7 -12 -24
-12 -38 0 -15 -7 -41 -16 -58 -20 -40 -23 -84 -6 -89 7 -3 28 11 47 31 18 20
43 36 54 36 30 0 63 49 58 85 -3 18 3 45 14 67 11 21 19 44 19 53 0 28 -38 15
-73 -26 -19 -22 -38 -36 -41 -31 -3 5 0 15 8 21 15 12 13 52 -4 105 -13 38
-13 38 8 32 17 -5 85 13 99 27 3 4 -3 16 -15 27 -12 12 -22 25 -22 31 0 5 -11
14 -25 21 -19 9 -29 7 -51 -7 -26 -17 -27 -17 -53 10 -17 19 -20 26 -9 22 9
-3 18 -3 20 2 4 8 219 72 263 77 l30 4 -25 -22 c-54 -48 -60 -61 -49 -103 6
-21 23 -54 37 -73 24 -32 29 -34 72 -29 25 2 52 8 61 11 12 5 19 -10 37 -81
13 -48 25 -101 28 -117 3 -16 9 -36 13 -45 5 -9 12 -34 16 -56 4 -22 9 -50 11
-62 4 -20 0 -23 -24 -23 -16 0 -41 -9 -56 -21 -14 -11 -26 -16 -26 -10 0 6
-30 40 -66 77 l-66 66 -56 -4 c-48 -4 -60 -10 -89 -41 -28 -31 -33 -44 -33
-86 0 -28 5 -53 10 -56 13 -8 13 -52 0 -60 -29 -18 -1 -78 79 -167 26 -30 68
-37 89 -16 9 9 16 0 32 -36 11 -26 24 -45 29 -41 5 3 13 0 17 -6 5 -8 0 -10
-17 -6 -18 5 -28 1 -38 -14 -10 -17 -10 -20 1 -13 10 6 10 4 -1 -9 -7 -9 -18
-14 -25 -10 -6 3 -8 3 -4 -1 4 -4 -9 -21 -28 -38 -19 -17 -37 -40 -40 -53 -4
-17 -11 -21 -31 -17 -18 3 -24 1 -19 -7 4 -6 14 -11 21 -11 9 0 12 -6 9 -15
-4 -8 -10 -13 -14 -10 -5 3 -6 -4 -3 -15 6 -22 -32 -86 -56 -95 -11 -4 -11 -2
-2 8 9 11 8 17 -4 27 -8 7 -15 17 -15 23 0 6 7 2 15 -9 15 -19 15 -19 8 1 -11
33 -39 75 -46 70 -4 -3 -5 -2 -3 1 2 3 -2 21 -10 41 -8 19 -10 32 -5 29 6 -4
19 2 30 13 10 10 29 22 40 26 33 10 49 45 49 108 0 57 -10 71 -36 45 -6 -6
-24 -13 -39 -14 -37 -4 -77 -50 -68 -78 4 -12 9 -37 11 -56 3 -22 -3 -11 -16
30 -11 36 -17 71 -15 78 3 7 1 11 -3 8 -5 -3 -19 38 -32 90 -13 52 -27 94 -30
94 -3 0 -13 -15 -23 -32 -23 -44 -22 -144 2 -151 19 -5 67 -145 70 -205 0 -13
6 -20 11 -17 6 3 10 -1 10 -9 0 -9 11 -50 25 -92 14 -42 25 -82 24 -88 -3 -27
3 -37 33 -52 45 -23 98 -19 218 17 58 17 168 49 245 70 118 32 144 43 168 69
30 34 32 47 16 105 -7 22 -12 49 -13 59 -1 13 -13 23 -38 30 -54 16 -80 41
-76 74 2 18 10 28 23 30 32 6 47 22 34 38 -6 7 -7 19 -3 25 5 9 -1 10 -23 6
-44 -9 -72 2 -88 34 -18 34 -13 48 28 74 41 26 43 59 5 63 -29 3 -58 35 -58
62 0 9 11 31 25 50 21 29 23 36 11 49 -15 17 -60 160 -53 168 3 2 8 -8 11 -23
5 -19 10 -24 18 -16 8 8 7 24 -2 56 -14 49 -45 95 -52 75 -2 -6 -23 58 -47
142 -50 180 -62 199 -130 198 -26 0 -146 -30 -276 -69z m317 10 c6 0 6 -6 -2
-15 -10 -12 -8 -16 14 -24 25 -10 41 -45 38 -86 0 -11 4 -23 11 -27 18 -11
-42 -30 -74 -23 -16 4 -27 12 -26 18 1 7 -7 12 -18 12 -11 1 -19 7 -17 14 1 6
-4 19 -13 27 -8 9 -15 24 -15 35 0 28 56 83 76 75 9 -3 20 -6 26 -6z m-246
-110 c0 -14 -7 -20 -23 -20 -22 0 -31 19 -16 33 14 15 39 6 39 -13z m-131 -10
c3 -6 -1 -13 -10 -16 -19 -8 -30 0 -20 15 8 14 22 14 30 1z m-143 -22 c-24
-24 -8 -78 24 -78 24 0 46 32 40 59 -5 22 -4 23 4 8 14 -23 4 -54 -22 -68 -30
-16 -68 6 -68 41 0 23 15 50 29 50 3 0 0 -5 -7 -12z m130 -31 c-26 -28 -27
-40 -6 -62 11 -11 26 -14 43 -10 20 4 22 3 11 -5 -8 -5 -21 -10 -27 -10 -18 0
-53 37 -53 55 0 8 9 24 20 35 28 28 38 25 12 -3z m59 -4 c13 -17 13 -17 -6 -3
-11 8 -22 16 -24 17 -2 2 0 3 6 3 6 0 17 -8 24 -17z m-126 -166 c19 -4 19 -5
-1 -6 -12 0 -28 7 -35 17 -12 15 -12 16 1 6 8 -7 24 -14 35 -17z m205 -30 c0
-20 -50 -88 -61 -82 -16 11 -10 73 9 84 24 14 52 13 52 -2z m30 -61 c0 -7 -6
-18 -13 -24 -14 -12 -58 -12 -51 -1 2 4 14 5 26 1 14 -3 19 -2 14 6 -8 14 0
32 15 32 5 0 9 -6 9 -14z m-98 -48 c-16 -16 -15 -31 1 -22 8 5 8 2 -2 -9 -17
-22 -19 -21 -16 6 4 36 4 37 17 37 9 0 9 -3 0 -12z m273 -33 c23 -23 33 -45
19 -45 -3 0 -19 14 -35 31 -24 26 -35 30 -63 27 -19 -2 -32 0 -30 4 3 4 23 8
45 8 29 0 47 -7 64 -25z m-163 -112 c5 -7 5 -14 -2 -18 -12 -7 -30 36 -29 68
0 18 2 17 11 -8 6 -16 15 -35 20 -42z m248 22 c0 -9 -6 -12 -15 -9 -8 4 -12
10 -9 15 8 14 24 10 24 -6z m0 -45 c0 -5 -2 -10 -4 -10 -3 0 -8 5 -11 10 -3 6
-1 10 4 10 6 0 11 -4 11 -10z m-222 -29 c3 -8 -1 -12 -9 -9 -7 2 -15 10 -17
17 -3 8 1 12 9 9 7 -2 15 -10 17 -17z m37 -11 c3 -5 1 -10 -4 -10 -6 0 -11 5
-11 10 0 6 2 10 4 10 3 0 8 -4 11 -10z m153 -21 c-14 -4 -32 -10 -40 -15 -7
-4 -5 2 5 13 12 14 25 19 40 15 21 -5 21 -6 -5 -13z m-74 -26 c4 -9 0 -22 -9
-30 -8 -7 -13 -10 -10 -7 2 4 0 14 -5 24 -9 17 -4 30 11 30 4 0 10 -8 13 -17z
m-154 -8 c-7 -9 -15 -13 -17 -11 -7 7 7 26 19 26 6 0 6 -6 -2 -15z m108 -6
c10 -15 11 -24 3 -32 -8 -8 -11 -5 -11 9 0 11 -5 25 -12 32 -7 7 -8 12 -2 12
5 0 15 -10 22 -21z m167 1 c-3 -6 -19 -17 -35 -25 -24 -12 -29 -13 -34 0 -3 9
0 12 9 9 8 -3 24 1 37 10 26 19 32 20 23 6z m-215 -32 c0 -5 -4 -8 -10 -8 -5
0 -10 10 -10 23 0 18 2 19 10 7 5 -8 10 -18 10 -22z m110 -19 c0 -6 -4 -7 -10
-4 -5 3 -10 11 -10 16 0 6 5 7 10 4 6 -3 10 -11 10 -16z m-26 -14 c4 -10 -1
-15 -14 -15 -11 0 -20 7 -20 15 0 8 6 15 14 15 8 0 16 -7 20 -15z m86 -2 c-23
-16 -27 -35 -5 -27 11 5 13 2 9 -10 -4 -9 -9 -14 -12 -12 -3 3 -11 1 -19 -6
-7 -6 -16 -8 -20 -4 -3 3 0 6 8 7 8 0 6 4 -6 9 -17 7 -17 9 -2 9 9 1 17 6 17
12 0 7 -9 9 -21 6 -19 -5 -19 -4 -6 11 9 9 30 17 47 18 29 1 29 0 10 -13z
m-100 -54 c0 -19 -17 -7 -50 36 -13 17 -11 16 18 -4 17 -12 32 -27 32 -32z
m-160 -79 c0 -5 -2 -10 -4 -10 -3 0 -8 5 -11 10 -3 6 -1 10 4 10 6 0 11 -4 11
-10z m-30 -11 c0 -7 10 -9 25 -7 l25 5 -19 -31 c-11 -17 -24 -32 -30 -34 -15
-5 -31 32 -24 56 6 23 23 31 23 11z m307 -34 c-1 -19 -4 -35 -7 -35 -4 0 -7
-7 -7 -16 0 -12 8 -15 36 -11 20 3 28 3 19 1 -22 -7 -24 -44 -3 -44 8 0 15 -5
15 -11 0 -6 -7 -9 -15 -5 -9 3 -15 0 -15 -10 0 -11 6 -14 23 -9 18 6 20 5 10
-6 -12 -12 -18 -49 -9 -49 13 0 35 13 32 19 -3 4 4 7 15 7 10 0 19 -1 19 -1 0
-1 -12 -12 -27 -26 -14 -13 -23 -18 -18 -10 5 9 4 12 -2 8 -6 -4 -9 -22 -7
-42 1 -19 -2 -35 -7 -35 -6 0 -7 -6 -4 -12 4 -7 0 -5 -8 5 -8 9 -20 17 -26 17
-7 0 -9 4 -6 10 3 5 0 7 -7 5 -8 -3 -14 -14 -14 -25 0 -23 7 -25 25 -7 11 10
13 10 7 0 -4 -8 -2 -13 6 -13 10 0 9 -3 -2 -9 -8 -6 -18 -7 -22 -5 -4 3 -8 -1
-9 -8 0 -7 -4 -4 -9 7 -4 11 -5 40 -2 65 8 56 7 100 -3 168 -5 34 -4 52 2 52
6 0 11 6 10 13 -1 22 3 47 7 47 2 0 4 -16 3 -35z m-33 -22 c-7 -39 -14 -42
-14 -5 0 18 4 32 9 32 5 0 7 -12 5 -27z m-29 -33 c3 -5 -1 -10 -10 -10 -9 0
-13 5 -10 10 3 6 8 10 10 10 2 0 7 -4 10 -10z m17 -38 c5 -5 12 -29 14 -53 3
-32 2 -38 -5 -24 -5 12 -16 26 -24 33 -17 15 -68 19 -86 8 -16 -10 -14 6 5 33
14 19 23 22 52 17 19 -3 39 -9 44 -14z m-69 -52 c-16 -6 -23 -18 -23 -35 0
-14 -4 -25 -10 -25 -16 0 -12 37 6 54 8 9 23 16 32 15 12 0 11 -3 -5 -9z m261
-38 c3 -5 -1 -9 -9 -9 -8 0 -12 4 -9 9 3 4 7 8 9 8 2 0 6 -4 9 -8z m70 -13
c-3 -5 -10 -7 -15 -3 -5 3 -7 10 -3 15 3 5 10 7 15 3 5 -3 7 -10 3 -15z m-107
-16 c-11 -11 13 -32 31 -27 13 4 13 3 -2 -6 -14 -10 -20 -10 -27 1 -4 7 -11
10 -16 6 -4 -4 -2 -17 5 -27 10 -16 9 -18 -3 -14 -8 4 -15 13 -15 21 0 17 18
53 27 53 3 0 3 -3 0 -7z m47 -1 c3 -5 -1 -9 -9 -9 -8 0 -12 4 -9 9 3 4 7 8 9
8 2 0 6 -4 9 -8z m-334 -12 c0 -5 -5 -10 -11 -10 -5 0 -7 5 -4 10 3 6 8 10 11
10 2 0 4 -4 4 -10z m60 -29 c0 -5 -7 -14 -15 -21 -14 -12 -13 -16 7 -39 l23
-26 -27 24 c-24 21 -28 22 -28 7 0 -14 -2 -15 -14 -4 -12 11 -11 14 6 21 12 4
18 13 15 21 -3 8 -1 17 6 20 19 7 27 7 27 -3z m12 -18 c-10 -4 -10 -11 3 -31
l16 -27 -20 24 c-21 23 -20 42 2 40 8 0 8 -2 -1 -6z m-95 -45 c-3 -8 -6 -5 -6
6 -1 11 2 17 5 13 3 -3 4 -12 1 -19z"/>
<path d="M1015 1610 c-3 -5 1 -10 9 -10 9 0 16 5 16 10 0 6 -4 10 -9 10 -6 0
-13 -4 -16 -10z"/>
<path d="M1080 1572 c1 -10 26 -42 34 -42 16 0 4 38 -14 43 -11 3 -20 2 -20
-1z"/>
<path d="M1023 1562 c-8 -5 -9 -13 -3 -22 7 -11 10 -11 10 -2 0 7 9 11 23 9
12 -2 16 -2 10 0 -7 3 -13 9 -13 14 0 11 -11 11 -27 1z"/>
<path d="M1045 1520 c3 -5 12 -10 20 -10 8 0 17 5 20 10 4 6 -5 10 -20 10 -15
0 -24 -4 -20 -10z"/>
<path d="M1080 1480 c0 -5 7 -10 15 -10 8 0 15 5 15 10 0 6 -7 10 -15 10 -8 0
-15 -4 -15 -10z"/>
<path d="M790 650 c0 -5 5 -10 10 -10 6 0 10 5 10 10 0 6 -4 10 -10 10 -5 0
-10 -4 -10 -10z"/>
<path d="M1113 503 c2 -12 6 -26 10 -29 11 -11 8 19 -3 36 -8 12 -9 10 -7 -7z"/>
<path d="M1129 442 c14 -27 14 -35 -1 -26 -7 4 -8 3 -4 -5 4 -6 12 -9 17 -6
12 8 5 48 -10 53 -10 3 -10 0 -2 -16z"/>
<path d="M928 1393 c-2 -10 3 -23 11 -29 21 -16 50 3 43 28 -6 24 -49 24 -54
1z"/>
<path d="M1079 1379 c-13 -10 -36 -19 -50 -19 -14 0 -33 -6 -43 -13 -16 -12
-16 -14 3 -38 11 -15 18 -29 15 -32 -3 -3 -3 -15 1 -26 6 -21 39 -29 49 -12 3
4 28 6 55 3 42 -4 51 -2 60 17 14 25 1 57 -27 65 -14 5 -17 14 -14 35 5 36
-16 45 -49 20z m28 -35 c-2 -2 -12 -1 -22 2 -17 7 -17 8 1 21 17 12 19 12 22
-2 2 -9 2 -19 -1 -21z m-84 -19 c-6 -17 -25 -15 -31 3 -2 7 5 12 17 12 14 0
19 -5 14 -15z m77 -5 c0 -5 -2 -10 -4 -10 -3 0 -8 5 -11 10 -3 6 -1 10 4 10 6
0 11 -4 11 -10z m58 -44 c3 -13 -5 -16 -39 -16 -40 0 -41 1 -26 18 10 10 17
24 17 32 0 18 44 -12 48 -34z m-87 17 c20 5 21 4 7 -9 -17 -18 -48 -9 -48 15
0 13 2 13 9 2 6 -9 18 -12 32 -8z m-30 -36 c-1 -12 -15 -9 -19 4 -3 6 1 10 8
8 6 -3 11 -8 11 -12z"/>
<path d="M767 1003 c-12 -12 -7 -22 8 -17 8 4 15 10 15 15 0 11 -14 12 -23 2z"/>
<path d="M1865 728 c-86 -12 -110 -20 -72 -26 15 -2 60 2 100 9 40 6 80 11 90
11 9 0 17 3 17 9 0 11 -38 10 -135 -3z"/>
<path d="M1978 703 c-24 -6 -23 -23 2 -23 11 0 20 7 20 15 0 8 -1 14 -2 14 -2
-1 -11 -3 -20 -6z"/>
<path d="M1910 683 c0 -14 -2 -15 -9 -4 -6 10 -23 12 -61 8 -56 -6 -65 -10
-56 -26 8 -13 47 -5 58 11 5 8 8 9 8 2 0 -6 14 -10 33 -9 17 2 40 3 50 4 24 1
22 31 -3 31 -12 0 -20 -7 -20 -17z"/>
<path d="M1741 670 c-35 -8 -40 -32 -6 -26 31 6 39 11 34 24 -2 4 -15 6 -28 2z"/>
<path d="M1975 651 c-3 -5 -1 -12 5 -16 5 -3 10 1 10 9 0 18 -6 21 -15 7z"/>
<path d="M1897 643 c-4 -3 -26 -7 -49 -8 -55 -3 -58 -3 -58 -14 0 -7 55 -8 70
-1 3 1 16 1 29 0 16 -1 21 2 15 11 -5 9 -2 11 9 6 10 -3 17 -2 17 3 0 11 -23
13 -33 3z"/>
<path d="M1940 634 c0 -8 5 -12 10 -9 6 3 10 10 10 16 0 5 -4 9 -10 9 -5 0
-10 -7 -10 -16z"/>
<path d="M1966 595 c4 -8 7 -15 9 -15 1 0 8 7 15 15 10 13 9 15 -8 15 -15 0
-20 -5 -16 -15z"/>
<path d="M242 420 c0 -19 2 -29 5 -22 3 9 9 10 17 3 10 -8 13 -3 13 19 0 22
-3 27 -13 19 -8 -7 -14 -6 -17 3 -3 7 -5 -3 -5 -22z"/>
<path d="M302 441 c-8 -5 -12 -17 -10 -27 4 -23 37 -31 49 -12 6 10 9 10 9 1
0 -16 32 -17 48 -1 9 9 12 9 12 0 0 -7 10 -11 23 -11 16 1 18 2 5 6 -16 4 -16
6 -3 19 21 21 19 34 -5 34 -12 0 -20 -7 -20 -17 -1 -17 -1 -17 -11 0 -5 9 -19
17 -29 17 -12 0 -20 -7 -20 -17 -1 -17 -1 -17 -11 0 -11 19 -18 21 -37 8z m28
-20 c0 -6 -4 -13 -10 -16 -5 -3 -10 1 -10 9 0 9 5 16 10 16 6 0 10 -4 10 -9z
m47 -13 c-3 -8 -6 -5 -6 6 -1 11 2 17 5 13 3 -3 4 -12 1 -19z"/>
<path d="M153 344 c-7 -19 20 -49 36 -40 6 4 11 18 11 32 0 17 -5 24 -20 24
-11 0 -23 -7 -27 -16z m31 -9 c-4 -8 -8 -15 -10 -15 -2 0 -4 7 -4 15 0 8 4 15
10 15 5 0 7 -7 4 -15z"/>
<path d="M216 344 c-10 -26 -7 -46 5 -38 18 11 89 10 93 -1 3 -5 5 5 5 23 1
32 -13 44 -22 20 -4 -10 -6 -10 -6 0 -1 17 -21 15 -21 -3 0 -8 -4 -15 -10 -15
-5 0 -10 7 -10 15 0 20 -26 19 -34 -1z"/>
<path d="M332 333 c2 -22 8 -28 28 -28 14 0 30 4 37 8 7 5 17 6 23 2 12 -8 13
15 1 34 -11 17 -31 6 -31 -16 0 -9 -3 -13 -7 -9 -5 4 -8 13 -8 19 0 7 -10 13
-23 15 -20 3 -23 0 -20 -25z"/>
<path d="M440 338 c0 -17 6 -23 23 -24 32 -2 30 40 -1 44 -17 3 -22 -2 -22
-20z"/>
<path d="M407 267 c-11 -18 -13 -28 -6 -33 7 -4 7 -10 1 -16 -11 -11 -4 -48 9
-48 5 0 9 8 10 18 0 16 1 16 7 -1 7 -16 8 -16 24 2 10 12 13 22 6 29 -6 6 -6
12 0 16 12 7 4 46 -9 46 -5 0 -9 -6 -10 -12 0 -7 -4 -5 -8 6 -7 17 -8 16 -24
-7z"/>
<path d="M210 225 c0 -42 3 -55 15 -55 9 0 15 9 16 23 l0 22 16 -22 c8 -13 22
-23 30 -23 14 0 14 3 1 23 -11 16 -12 27 -5 38 17 28 1 49 -38 49 l-35 0 0
-55z m60 25 c0 -5 -7 -10 -15 -10 -8 0 -15 5 -15 10 0 6 7 10 15 10 8 0 15 -4
15 -10z"/>
<path d="M310 225 c0 -30 5 -55 10 -55 6 0 10 9 10 20 0 11 4 20 9 20 5 0 13
-9 16 -20 3 -11 13 -20 21 -20 18 0 18 6 -3 41 -16 27 -16 29 2 49 16 17 16
20 2 20 -9 0 -23 -10 -31 -22 l-16 -22 0 22 c0 12 -4 22 -10 22 -5 0 -10 -25
-10 -55z"/>
</g>
</svg>
